<svg xmlns="http://www.w3.org/2000/svg" width="900" height="463" viewBox="0 0 900 463" role="img" aria-labelledby="title desc">
<title id="title">Preço em coins: Jogadores baratos EA FC: Premier League em 22/07 — Console (PS)</title>
<desc id="desc">Gráfico gerado a partir da tabela publicada neste artigo.</desc>
<rect width="100%" height="100%" rx="20" fill="#0f172a"/>
<text x="28" y="42" fill="#f8fafc" font-family="system-ui,sans-serif" font-size="23" font-weight="700">Preço em coins</text>
<text x="28" y="70" fill="#94a3b8" font-family="system-ui,sans-serif" font-size="15">Dados do recorte publicado no artigo</text>
<text x="28" y="117" fill="#e2e8f0" font-family="system-ui,sans-serif" font-size="16">Virgil van Dijk</text>
<rect x="285" y="95" width="241" height="28" rx="7" fill="#38bdf8"/>
<text x="536" y="116" fill="#f8fafc" font-family="system-ui,sans-serif" font-size="15" font-weight="700">7.400</text>
<text x="28" y="175" fill="#e2e8f0" font-family="system-ui,sans-serif" font-size="16">Rodri</text>
<rect x="285" y="153" width="325" height="28" rx="7" fill="#38bdf8"/>
<text x="620" y="174" fill="#f8fafc" font-family="system-ui,sans-serif" font-size="15" font-weight="700">10.000</text>
<text x="28" y="233" fill="#e2e8f0" font-family="system-ui,sans-serif" font-size="16">Alisson</text>
<rect x="285" y="211" width="153" height="28" rx="7" fill="#38bdf8"/>
<text x="448" y="232" fill="#f8fafc" font-family="system-ui,sans-serif" font-size="15" font-weight="700">4.700</text>
<text x="28" y="291" fill="#e2e8f0" font-family="system-ui,sans-serif" font-size="16">Sepp van den Berg</text>
<rect x="285" y="269" width="480" height="28" rx="7" fill="#38bdf8"/>
<text x="775" y="290" fill="#f8fafc" font-family="system-ui,sans-serif" font-size="15" font-weight="700">14.750</text>
<text x="28" y="349" fill="#e2e8f0" font-family="system-ui,sans-serif" font-size="16">Alexander Isak</text>
<rect x="285" y="327" width="55" height="28" rx="7" fill="#38bdf8"/>
<text x="350" y="348" fill="#f8fafc" font-family="system-ui,sans-serif" font-size="15" font-weight="700">1.700</text>
<text x="28" y="407" fill="#e2e8f0" font-family="system-ui,sans-serif" font-size="16">Freddie Ljungberg</text>
<rect x="285" y="385" width="407" height="28" rx="7" fill="#38bdf8"/>
<text x="702" y="406" fill="#f8fafc" font-family="system-ui,sans-serif" font-size="15" font-weight="700">12.500</text>
</svg>
