<svg xmlns="http://www.w3.org/2000/svg" width="900" height="463" viewBox="0 0 900 463" role="img" aria-labelledby="title desc">
<title id="title">Preço em coins: Jogadores baratos EA FC: Premier League em 22/07 — PC</title>
<desc id="desc">Gráfico gerado a partir da tabela publicada neste artigo.</desc>
<rect width="100%" height="100%" rx="20" fill="#0f172a"/>
<text x="28" y="42" fill="#f8fafc" font-family="system-ui,sans-serif" font-size="23" font-weight="700">Preço em coins</text>
<text x="28" y="70" fill="#94a3b8" font-family="system-ui,sans-serif" font-size="15">Dados do recorte publicado no artigo</text>
<text x="28" y="117" fill="#e2e8f0" font-family="system-ui,sans-serif" font-size="16">Rodri</text>
<rect x="285" y="95" width="255" height="28" rx="7" fill="#38bdf8"/>
<text x="550" y="116" fill="#f8fafc" font-family="system-ui,sans-serif" font-size="15" font-weight="700">7.300</text>
<text x="28" y="175" fill="#e2e8f0" font-family="system-ui,sans-serif" font-size="16">Gianluigi Donnarumma</text>
<rect x="285" y="153" width="119" height="28" rx="7" fill="#38bdf8"/>
<text x="414" y="174" fill="#f8fafc" font-family="system-ui,sans-serif" font-size="15" font-weight="700">3.400</text>
<text x="28" y="233" fill="#e2e8f0" font-family="system-ui,sans-serif" font-size="16">Alisson</text>
<rect x="285" y="211" width="136" height="28" rx="7" fill="#38bdf8"/>
<text x="431" y="232" fill="#f8fafc" font-family="system-ui,sans-serif" font-size="15" font-weight="700">3.900</text>
<text x="28" y="291" fill="#e2e8f0" font-family="system-ui,sans-serif" font-size="16">Dimitar Berbatov</text>
<rect x="285" y="269" width="480" height="28" rx="7" fill="#38bdf8"/>
<text x="775" y="290" fill="#f8fafc" font-family="system-ui,sans-serif" font-size="15" font-weight="700">13.750</text>
<text x="28" y="349" fill="#e2e8f0" font-family="system-ui,sans-serif" font-size="16">Freddie Ljungberg</text>
<rect x="285" y="327" width="384" height="28" rx="7" fill="#38bdf8"/>
<text x="679" y="348" fill="#f8fafc" font-family="system-ui,sans-serif" font-size="15" font-weight="700">11.000</text>
<text x="28" y="407" fill="#e2e8f0" font-family="system-ui,sans-serif" font-size="16">Ole Gunnar Solskjær</text>
<rect x="285" y="385" width="428" height="28" rx="7" fill="#38bdf8"/>
<text x="723" y="406" fill="#f8fafc" font-family="system-ui,sans-serif" font-size="15" font-weight="700">12.250</text>
</svg>
