<svg xmlns="http://www.w3.org/2000/svg" width="900" height="463" viewBox="0 0 900 463" role="img" aria-labelledby="title desc">
<title id="title">Preço em coins: Jogadores baratos EA FC: Premier League em 18/07 — PC</title>
<desc id="desc">Gráfico gerado a partir da tabela publicada neste artigo.</desc>
<rect width="100%" height="100%" rx="20" fill="#0f172a"/>
<text x="28" y="42" fill="#f8fafc" font-family="system-ui,sans-serif" font-size="23" font-weight="700">Preço em coins</text>
<text x="28" y="70" fill="#94a3b8" font-family="system-ui,sans-serif" font-size="15">Dados do recorte publicado no artigo</text>
<text x="28" y="117" fill="#e2e8f0" font-family="system-ui,sans-serif" font-size="16">Rodri</text>
<rect x="285" y="95" width="140" height="28" rx="7" fill="#38bdf8"/>
<text x="435" y="116" fill="#f8fafc" font-family="system-ui,sans-serif" font-size="15" font-weight="700">3.500</text>
<text x="28" y="175" fill="#e2e8f0" font-family="system-ui,sans-serif" font-size="16">Erling Haaland</text>
<rect x="285" y="153" width="480" height="28" rx="7" fill="#38bdf8"/>
<text x="775" y="174" fill="#f8fafc" font-family="system-ui,sans-serif" font-size="15" font-weight="700">12.000</text>
<text x="28" y="233" fill="#e2e8f0" font-family="system-ui,sans-serif" font-size="16">Gianluigi Donnarumma</text>
<rect x="285" y="211" width="148" height="28" rx="7" fill="#38bdf8"/>
<text x="443" y="232" fill="#f8fafc" font-family="system-ui,sans-serif" font-size="15" font-weight="700">3.700</text>
<text x="28" y="291" fill="#e2e8f0" font-family="system-ui,sans-serif" font-size="16">Gabriel</text>
<rect x="285" y="269" width="72" height="28" rx="7" fill="#38bdf8"/>
<text x="367" y="290" fill="#f8fafc" font-family="system-ui,sans-serif" font-size="15" font-weight="700">1.800</text>
<text x="28" y="349" fill="#e2e8f0" font-family="system-ui,sans-serif" font-size="16">Alexander Isak</text>
<rect x="285" y="327" width="104" height="28" rx="7" fill="#38bdf8"/>
<text x="399" y="348" fill="#f8fafc" font-family="system-ui,sans-serif" font-size="15" font-weight="700">2.600</text>
<text x="28" y="407" fill="#e2e8f0" font-family="system-ui,sans-serif" font-size="16">David Raya</text>
<rect x="285" y="385" width="60" height="28" rx="7" fill="#38bdf8"/>
<text x="355" y="406" fill="#f8fafc" font-family="system-ui,sans-serif" font-size="15" font-weight="700">1.500</text>
</svg>
