<svg xmlns="http://www.w3.org/2000/svg" width="900" height="463" viewBox="0 0 900 463" role="img" aria-labelledby="title desc">
<title id="title">Variação em 7 dias: Investimentos EA FC: Premier League em 17/07 — Console (PS)</title>
<desc id="desc">Gráfico gerado a partir da tabela publicada neste artigo.</desc>
<rect width="100%" height="100%" rx="20" fill="#0f172a"/>
<text x="28" y="42" fill="#f8fafc" font-family="system-ui,sans-serif" font-size="23" font-weight="700">Variação em 7 dias</text>
<text x="28" y="70" fill="#94a3b8" font-family="system-ui,sans-serif" font-size="15">Dados do recorte publicado no artigo</text>
<text x="28" y="117" fill="#e2e8f0" font-family="system-ui,sans-serif" font-size="16">Dominik Szoboszlai</text>
<rect x="285" y="95" width="480" height="28" rx="7" fill="#22c55e"/>
<text x="775" y="116" fill="#f8fafc" font-family="system-ui,sans-serif" font-size="15" font-weight="700">+84.6%</text>
<text x="28" y="175" fill="#e2e8f0" font-family="system-ui,sans-serif" font-size="16">Igor Jesus</text>
<rect x="285" y="153" width="419" height="28" rx="7" fill="#22c55e"/>
<text x="714" y="174" fill="#f8fafc" font-family="system-ui,sans-serif" font-size="15" font-weight="700">+73.9%</text>
<text x="28" y="233" fill="#e2e8f0" font-family="system-ui,sans-serif" font-size="16">Mateo Kovačić</text>
<rect x="285" y="211" width="385" height="28" rx="7" fill="#22c55e"/>
<text x="680" y="232" fill="#f8fafc" font-family="system-ui,sans-serif" font-size="15" font-weight="700">+67.9%</text>
<text x="28" y="291" fill="#e2e8f0" font-family="system-ui,sans-serif" font-size="16">Conor Gallagher</text>
<rect x="285" y="269" width="381" height="28" rx="7" fill="#22c55e"/>
<text x="676" y="290" fill="#f8fafc" font-family="system-ui,sans-serif" font-size="15" font-weight="700">+67.1%</text>
<text x="28" y="349" fill="#e2e8f0" font-family="system-ui,sans-serif" font-size="16">Ryan Gravenberch</text>
<rect x="285" y="327" width="331" height="28" rx="7" fill="#22c55e"/>
<text x="626" y="348" fill="#f8fafc" font-family="system-ui,sans-serif" font-size="15" font-weight="700">+58.3%</text>
<text x="28" y="407" fill="#e2e8f0" font-family="system-ui,sans-serif" font-size="16">Bernardo Silva</text>
<rect x="285" y="385" width="284" height="28" rx="7" fill="#22c55e"/>
<text x="579" y="406" fill="#f8fafc" font-family="system-ui,sans-serif" font-size="15" font-weight="700">+50.0%</text>
</svg>
