<svg xmlns="http://www.w3.org/2000/svg" width="900" height="463" viewBox="0 0 900 463" role="img" aria-labelledby="title desc">
<title id="title">Variação em 7 dias: Investimentos EA FC: Premier League em 17/07 — Console (PS)</title>
<desc id="desc">Gráfico gerado a partir da tabela publicada neste artigo.</desc>
<rect width="100%" height="100%" rx="20" fill="#0f172a"/>
<text x="28" y="42" fill="#f8fafc" font-family="system-ui,sans-serif" font-size="23" font-weight="700">Variação em 7 dias</text>
<text x="28" y="70" fill="#94a3b8" font-family="system-ui,sans-serif" font-size="15">Dados do recorte publicado no artigo</text>
<text x="28" y="117" fill="#e2e8f0" font-family="system-ui,sans-serif" font-size="16">Nick Woltemade</text>
<rect x="285" y="95" width="480" height="28" rx="7" fill="#22c55e"/>
<text x="775" y="116" fill="#f8fafc" font-family="system-ui,sans-serif" font-size="15" font-weight="700">+74.0%</text>
<text x="28" y="175" fill="#e2e8f0" font-family="system-ui,sans-serif" font-size="16">Vincent Kompany</text>
<rect x="285" y="153" width="383" height="28" rx="7" fill="#22c55e"/>
<text x="678" y="174" fill="#f8fafc" font-family="system-ui,sans-serif" font-size="15" font-weight="700">+59.1%</text>
<text x="28" y="233" fill="#e2e8f0" font-family="system-ui,sans-serif" font-size="16">Malo Gusto</text>
<rect x="285" y="211" width="285" height="28" rx="7" fill="#22c55e"/>
<text x="580" y="232" fill="#f8fafc" font-family="system-ui,sans-serif" font-size="15" font-weight="700">+44.0%</text>
<text x="28" y="291" fill="#e2e8f0" font-family="system-ui,sans-serif" font-size="16">Elliot Anderson</text>
<rect x="285" y="269" width="276" height="28" rx="7" fill="#22c55e"/>
<text x="571" y="290" fill="#f8fafc" font-family="system-ui,sans-serif" font-size="15" font-weight="700">+42.5%</text>
<text x="28" y="349" fill="#e2e8f0" font-family="system-ui,sans-serif" font-size="16">James Milner</text>
<rect x="285" y="327" width="226" height="28" rx="7" fill="#22c55e"/>
<text x="521" y="348" fill="#f8fafc" font-family="system-ui,sans-serif" font-size="15" font-weight="700">+34.9%</text>
<text x="28" y="407" fill="#e2e8f0" font-family="system-ui,sans-serif" font-size="16">Martin Dúbravka</text>
<rect x="285" y="385" width="147" height="28" rx="7" fill="#22c55e"/>
<text x="442" y="406" fill="#f8fafc" font-family="system-ui,sans-serif" font-size="15" font-weight="700">+22.6%</text>
</svg>
