<svg xmlns="http://www.w3.org/2000/svg" width="900" height="463" viewBox="0 0 900 463" role="img" aria-labelledby="title desc">
<title id="title">Variação em 7 dias: Momentum de Premier League no EA FC em 01/06 — PC</title>
<desc id="desc">Gráfico gerado a partir da tabela publicada neste artigo.</desc>
<rect width="100%" height="100%" rx="20" fill="#0f172a"/>
<text x="28" y="42" fill="#f8fafc" font-family="system-ui,sans-serif" font-size="23" font-weight="700">Variação em 7 dias</text>
<text x="28" y="70" fill="#94a3b8" font-family="system-ui,sans-serif" font-size="15">Dados do recorte publicado no artigo</text>
<text x="28" y="117" fill="#e2e8f0" font-family="system-ui,sans-serif" font-size="16">Jeremie Frimpong</text>
<rect x="285" y="95" width="480" height="28" rx="7" fill="#22c55e"/>
<text x="775" y="116" fill="#f8fafc" font-family="system-ui,sans-serif" font-size="15" font-weight="700">+70.8%</text>
<text x="28" y="175" fill="#e2e8f0" font-family="system-ui,sans-serif" font-size="16">Tim Cahill</text>
<rect x="285" y="153" width="281" height="28" rx="7" fill="#22c55e"/>
<text x="576" y="174" fill="#f8fafc" font-family="system-ui,sans-serif" font-size="15" font-weight="700">+41.5%</text>
<text x="28" y="233" fill="#e2e8f0" font-family="system-ui,sans-serif" font-size="16">Ryan Christie</text>
<rect x="285" y="211" width="230" height="28" rx="7" fill="#22c55e"/>
<text x="525" y="232" fill="#f8fafc" font-family="system-ui,sans-serif" font-size="15" font-weight="700">+33.9%</text>
<text x="28" y="291" fill="#e2e8f0" font-family="system-ui,sans-serif" font-size="16">Rodri</text>
<rect x="285" y="269" width="212" height="28" rx="7" fill="#22c55e"/>
<text x="507" y="290" fill="#f8fafc" font-family="system-ui,sans-serif" font-size="15" font-weight="700">+31.2%</text>
<text x="28" y="349" fill="#e2e8f0" font-family="system-ui,sans-serif" font-size="16">Ben Davies</text>
<rect x="285" y="327" width="185" height="28" rx="7" fill="#22c55e"/>
<text x="480" y="348" fill="#f8fafc" font-family="system-ui,sans-serif" font-size="15" font-weight="700">+27.3%</text>
<text x="28" y="407" fill="#e2e8f0" font-family="system-ui,sans-serif" font-size="16">Raúl Jiménez</text>
<rect x="285" y="385" width="87" height="28" rx="7" fill="#22c55e"/>
<text x="382" y="406" fill="#f8fafc" font-family="system-ui,sans-serif" font-size="15" font-weight="700">+12.9%</text>
</svg>
