<svg xmlns="http://www.w3.org/2000/svg" width="900" height="463" viewBox="0 0 900 463" role="img" aria-labelledby="title desc">
<title id="title">Variação em 7 dias: Momentum de Premier League no EA FC em 18/06 — PS</title>
<desc id="desc">Gráfico gerado a partir da tabela publicada neste artigo.</desc>
<rect width="100%" height="100%" rx="20" fill="#0f172a"/>
<text x="28" y="42" fill="#f8fafc" font-family="system-ui,sans-serif" font-size="23" font-weight="700">Variação em 7 dias</text>
<text x="28" y="70" fill="#94a3b8" font-family="system-ui,sans-serif" font-size="15">Dados do recorte publicado no artigo</text>
<text x="28" y="117" fill="#e2e8f0" font-family="system-ui,sans-serif" font-size="16">Nwankwo Kanu</text>
<rect x="285" y="95" width="480" height="28" rx="7" fill="#22c55e"/>
<text x="775" y="116" fill="#f8fafc" font-family="system-ui,sans-serif" font-size="15" font-weight="700">+73.1%</text>
<text x="28" y="175" fill="#e2e8f0" font-family="system-ui,sans-serif" font-size="16">Enzo Fernández</text>
<rect x="285" y="153" width="467" height="28" rx="7" fill="#22c55e"/>
<text x="762" y="174" fill="#f8fafc" font-family="system-ui,sans-serif" font-size="15" font-weight="700">+71.1%</text>
<text x="28" y="233" fill="#e2e8f0" font-family="system-ui,sans-serif" font-size="16">Ollie Watkins</text>
<rect x="285" y="211" width="458" height="28" rx="7" fill="#22c55e"/>
<text x="753" y="232" fill="#f8fafc" font-family="system-ui,sans-serif" font-size="15" font-weight="700">+69.7%</text>
<text x="28" y="291" fill="#e2e8f0" font-family="system-ui,sans-serif" font-size="16">Marcos Senesi</text>
<rect x="285" y="269" width="377" height="28" rx="7" fill="#22c55e"/>
<text x="672" y="290" fill="#f8fafc" font-family="system-ui,sans-serif" font-size="15" font-weight="700">+57.4%</text>
<text x="28" y="349" fill="#e2e8f0" font-family="system-ui,sans-serif" font-size="16">Adam Wharton</text>
<rect x="285" y="327" width="318" height="28" rx="7" fill="#22c55e"/>
<text x="613" y="348" fill="#f8fafc" font-family="system-ui,sans-serif" font-size="15" font-weight="700">+48.4%</text>
<text x="28" y="407" fill="#e2e8f0" font-family="system-ui,sans-serif" font-size="16">Alejandro Garnacho</text>
<rect x="285" y="385" width="246" height="28" rx="7" fill="#22c55e"/>
<text x="541" y="406" fill="#f8fafc" font-family="system-ui,sans-serif" font-size="15" font-weight="700">+37.5%</text>
</svg>
