<svg xmlns="http://www.w3.org/2000/svg" width="900" height="463" viewBox="0 0 900 463" role="img" aria-labelledby="title desc">
<title id="title">Variação em 24h: Mercado EA FC em 24/07: Premier League — Console (PS)</title>
<desc id="desc">Gráfico gerado a partir da tabela publicada neste artigo.</desc>
<rect width="100%" height="100%" rx="20" fill="#0f172a"/>
<text x="28" y="42" fill="#f8fafc" font-family="system-ui,sans-serif" font-size="23" font-weight="700">Variação em 24h</text>
<text x="28" y="70" fill="#94a3b8" font-family="system-ui,sans-serif" font-size="15">Dados do recorte publicado no artigo</text>
<text x="28" y="117" fill="#e2e8f0" font-family="system-ui,sans-serif" font-size="16">Harry Wilson</text>
<rect x="285" y="95" width="480" height="28" rx="7" fill="#22c55e"/>
<text x="775" y="116" fill="#f8fafc" font-family="system-ui,sans-serif" font-size="15" font-weight="700">+47.4%</text>
<text x="28" y="175" fill="#e2e8f0" font-family="system-ui,sans-serif" font-size="16">Martin Ødegaard</text>
<rect x="285" y="153" width="445" height="28" rx="7" fill="#22c55e"/>
<text x="740" y="174" fill="#f8fafc" font-family="system-ui,sans-serif" font-size="15" font-weight="700">+43.9%</text>
<text x="28" y="233" fill="#e2e8f0" font-family="system-ui,sans-serif" font-size="16">John Arne Riise</text>
<rect x="285" y="211" width="437" height="28" rx="7" fill="#22c55e"/>
<text x="732" y="232" fill="#f8fafc" font-family="system-ui,sans-serif" font-size="15" font-weight="700">+43.2%</text>
<text x="28" y="291" fill="#e2e8f0" font-family="system-ui,sans-serif" font-size="16">Alejandro Garnacho</text>
<rect x="285" y="269" width="434" height="28" rx="7" fill="#22c55e"/>
<text x="729" y="290" fill="#f8fafc" font-family="system-ui,sans-serif" font-size="15" font-weight="700">+42.9%</text>
<text x="28" y="349" fill="#e2e8f0" font-family="system-ui,sans-serif" font-size="16">Matheus Cunha</text>
<rect x="285" y="327" width="380" height="28" rx="7" fill="#22c55e"/>
<text x="675" y="348" fill="#f8fafc" font-family="system-ui,sans-serif" font-size="15" font-weight="700">+37.5%</text>
<text x="28" y="407" fill="#e2e8f0" font-family="system-ui,sans-serif" font-size="16">Florian Wirtz</text>
<rect x="285" y="385" width="380" height="28" rx="7" fill="#22c55e"/>
<text x="675" y="406" fill="#f8fafc" font-family="system-ui,sans-serif" font-size="15" font-weight="700">+37.5%</text>
</svg>
