<svg xmlns="http://www.w3.org/2000/svg" width="900" height="463" viewBox="0 0 900 463" role="img" aria-labelledby="title desc">
<title id="title">Variação em 24h: Premier League no EA FC em 19/06: altas e baixas — PS</title>
<desc id="desc">Gráfico gerado a partir da tabela publicada neste artigo.</desc>
<rect width="100%" height="100%" rx="20" fill="#0f172a"/>
<text x="28" y="42" fill="#f8fafc" font-family="system-ui,sans-serif" font-size="23" font-weight="700">Variação em 24h</text>
<text x="28" y="70" fill="#94a3b8" font-family="system-ui,sans-serif" font-size="15">Dados do recorte publicado no artigo</text>
<text x="28" y="117" fill="#e2e8f0" font-family="system-ui,sans-serif" font-size="16">Micky van de Ven</text>
<rect x="285" y="95" width="480" height="28" rx="7" fill="#22c55e"/>
<text x="775" y="116" fill="#f8fafc" font-family="system-ui,sans-serif" font-size="15" font-weight="700">+28.7%</text>
<text x="28" y="175" fill="#e2e8f0" font-family="system-ui,sans-serif" font-size="16">Nico González</text>
<rect x="285" y="153" width="279" height="28" rx="7" fill="#22c55e"/>
<text x="574" y="174" fill="#f8fafc" font-family="system-ui,sans-serif" font-size="15" font-weight="700">+16.7%</text>
<text x="28" y="233" fill="#e2e8f0" font-family="system-ui,sans-serif" font-size="16">Antoine Semenyo</text>
<rect x="285" y="211" width="273" height="28" rx="7" fill="#22c55e"/>
<text x="568" y="232" fill="#f8fafc" font-family="system-ui,sans-serif" font-size="15" font-weight="700">+16.3%</text>
<text x="28" y="291" fill="#e2e8f0" font-family="system-ui,sans-serif" font-size="16">Federico Chiesa</text>
<rect x="285" y="269" width="249" height="28" rx="7" fill="#22c55e"/>
<text x="544" y="290" fill="#f8fafc" font-family="system-ui,sans-serif" font-size="15" font-weight="700">+14.9%</text>
<text x="28" y="349" fill="#e2e8f0" font-family="system-ui,sans-serif" font-size="16">Mohamed Salah</text>
<rect x="285" y="327" width="226" height="28" rx="7" fill="#22c55e"/>
<text x="521" y="348" fill="#f8fafc" font-family="system-ui,sans-serif" font-size="15" font-weight="700">+13.5%</text>
<text x="28" y="407" fill="#e2e8f0" font-family="system-ui,sans-serif" font-size="16">Andrew Robertson</text>
<rect x="285" y="385" width="197" height="28" rx="7" fill="#22c55e"/>
<text x="492" y="406" fill="#f8fafc" font-family="system-ui,sans-serif" font-size="15" font-weight="700">+11.8%</text>
</svg>
